# xmcd CD database file
#
# Track frame offsets:
#	150
#	19884
#	35300
#	51242
#	68989
#	86627
#	107779
#	132835
#	147614
#	164340
#	181534
#	197979
#
# Disc length: 2844 seconds
#
# Revision: 5
# Processed by: cddbd v1.5.2PL0 Copyright (c) Steve Scherf et al.
# Submitted via: CDex 1.51
#
DISCID=aa0b1a0c
DTITLE=Max Mutzke - ...aus dem bauch
DYEAR=2007
DGENRE=Blues
TTITLE0=Eigentlich immer
TTITLE1=Mein Automobil
TTITLE2=Like a fire
TTITLE3=Musik kommt aus dem Bauch
TTITLE4=Lass mich nicht gehn
TTITLE5=What a fool believes
TTITLE6=Drei schritte rückwärts
TTITLE7=Schön hier zu sein
TTITLE8=Tag für Tag
TTITLE9=Weil ich dich liebe
TTITLE10=Wir verlieren uns nicht für immer
TTITLE11=Song für dich
EXTD=YEAR: 2007
EXTT0=
EXTT1=
EXTT2=
EXTT3=
EXTT4=
EXTT5=
EXTT6=
EXTT7=
EXTT8=
EXTT9=
EXTT10=
EXTT11=
PLAYORDER=
